<svg transform="rotate(0) scale(1, 1)" preserveAspectRatio="xMidYMid meet" viewBox="0 6.144 1024 1019.904" xmlns="http://www.w3.org/2000/svg" version="1.0" style="max-height: 500px" width="1024" height="1019.904">

<g stroke="none" fill="#1abc9c" transform="translate(0.000000,1024.000000) scale(0.100000,-0.100000)">
<path d="M4765 9129 c-276 -24 -486 -62 -742 -134 -395 -112 -766 -280 -1106&#10;-502 -593 -386 -1091 -951 -1401 -1588 -205 -421 -321 -816 -378 -1289 -29&#10;-238 -31 -647 -5 -866 62 -511 169 -887 377 -1316 197 -409 427 -735 755&#10;-1073 443 -455 933 -770 1529 -983 240 -85 619 -172 871 -200 190 -21 836 -17&#10;995 5 815 115 1522 445 2150 1004 321 286 558 583 799 1001 96 166 161 302&#10;235 492 186 471 272 894 283 1395 18 781 -172 1491 -577 2165 -382 634 -932&#10;1141 -1609 1480 -453 226 -937 361 -1481 410 -134 12 -550 11 -695 -1z m673&#10;-16 c-10 -2 -28 -2 -40 0 -13 2 -5 4 17 4 22 1 32 -1 23 -4z m-1131 -69 c-3&#10;-3 -12 -4 -19 -1 -8 3 -5 6 6 6 11 1 17 -2 13 -5z m756 -231 c-7 -2 -19 -2&#10;-25 0 -7 3 -2 5 12 5 14 0 19 -2 13 -5z m64 1 c-3 -3 -12 -4 -19 -1 -8 3 -5 6&#10;6 6 11 1 17 -2 13 -5z m403 -38 c477 -55 869 -169 1270 -370 368 -185 625&#10;-372 922 -672 283 -287 495 -582 677 -945 194 -387 310 -772 367 -1224 22&#10;-173 25 -592 5 -765 -59 -527 -210 -1005 -452 -1438 -422 -754 -1125 -1346&#10;-1955 -1647 -621 -225 -1305 -274 -1965 -140 -242 49 -454 115 -699 218 -631&#10;265 -1136 665 -1545 1227 -349 479 -587 1068 -666 1650 -30 222 -37 600 -15&#10;820 32 319 84 565 185 860 138 408 352 790 635 1131 338 409 695 694 1151 919&#10;457 224 913 351 1411 389 154 12 515 5 674 -13z m7 18 c-3 -3 -12 -4 -19 -1&#10;-8 3 -5 6 6 6 11 1 17 -2 13 -5z"/>
<path d="M3560 7521 c0 -4 59 -165 131 -357 72 -192 195 -524 274 -739 219&#10;-594 674 -1814 696 -1864 18 -42 19 -76 19 -957 l0 -914 443 0 442 0 -3 910&#10;-2 910 39 92 c54 126 652 1748 868 2353 96 270 181 507 189 529 8 21 14 40 14&#10;42 0 2 -201 4 -448 4 l-447 0 -285 -857 c-156 -472 -298 -905 -316 -963 -17&#10;-57 -36 -106 -40 -107 -5 -2 -57 140 -116 315 -132 392 -457 1346 -520 1525&#10;l-31 87 -453 0 c-250 0 -454 -4 -454 -9z"/>
</g>
</svg>